<?xml version="1.0" standalone="no"?>
<!DOCTYPE svg PUBLIC "-//W3C//DTD SVG 20010904//EN"
 "http://www.w3.org/TR/2001/REC-SVG-20010904/DTD/svg10.dtd">
<svg version="1.0" xmlns="http://www.w3.org/2000/svg"
 width="700.000000pt" height="700.000000pt" viewBox="0 0 700.000000 700.000000"
 preserveAspectRatio="xMidYMid meet">
<metadata>
Created by potrace 1.14, written by Peter Selinger 2001-2017
</metadata>
<g transform="translate(0.000000,700.000000) scale(0.100000,-0.100000)"
fill="#000000" stroke="none">
<path d="M3321 6159 c-263 -32 -505 -147 -690 -328 l-96 -93 -106 -3 c-179 -5
-361 -50 -514 -128 -278 -140 -525 -431 -624 -734 -40 -124 -55 -219 -54 -360
1 -118 0 -123 -23 -138 -36 -23 -167 -185 -214 -263 -133 -224 -189 -491 -161
-755 33 -298 146 -543 342 -738 78 -77 86 -88 81 -117 -7 -49 16 -250 39 -338
82 -315 284 -581 572 -752 212 -125 367 -172 587 -177 l145 -4 70 -66 c307
-292 733 -399 1157 -291 227 57 384 143 538 294 95 93 108 102 135 97 48 -8
236 13 337 39 309 78 575 281 746 569 125 210 172 367 178 585 l3 143 66 72
c298 325 402 741 290 1164 -60 228 -142 378 -289 530 l-98 102 -4 104 c-10
322 -145 626 -372 838 -251 235 -525 350 -842 354 l-125 1 -62 61 c-164 161
-366 269 -594 319 -88 19 -315 26 -418 13z m339 -525 c66 -15 200 -71 200 -84
0 -3 -13 -16 -30 -28 -92 -68 -257 -254 -315 -356 -9 -15 -17 -8 -60 54 -59
88 -176 208 -268 274 -37 28 -67 53 -67 57 0 16 171 79 250 92 63 11 230 6
290 -9z m1100 -438 c197 -80 354 -238 424 -426 14 -40 25 -74 24 -76 -2 -1
-55 2 -118 7 -123 10 -219 5 -339 -17 -41 -8 -76 -12 -77 -11 -2 2 3 39 11 82
18 99 18 296 1 393 -14 84 -15 84 74 48z m-2456 -28 c-13 -77 -5 -307 14 -405
10 -51 18 -93 18 -93 -137 31 -353 39 -477 19 -38 -7 -72 -9 -76 -6 -3 4 4 33
16 64 52 138 161 278 275 356 53 36 204 106 229 107 5 0 5 -19 1 -42z m667
-138 c91 -89 147 -173 190 -284 17 -44 32 -82 33 -83 1 -2 36 5 77 14 102 23
356 23 458 0 41 -9 77 -15 79 -12 3 2 19 40 37 84 18 44 49 107 69 139 67 111
243 280 266 256 14 -15 30 -123 30 -198 0 -104 -17 -188 -56 -290 -19 -50 -37
-98 -40 -106 -4 -11 18 -31 68 -65 96 -65 251 -223 308 -313 25 -39 50 -69 55
-67 6 2 48 20 95 39 125 51 231 70 365 64 156 -7 157 -8 97 -94 -85 -121 -209
-215 -362 -276 -41 -17 -76 -31 -77 -32 -2 -1 5 -36 14 -77 22 -102 22 -356 0
-458 -9 -41 -14 -77 -12 -80 3 -2 37 -17 76 -32 99 -39 193 -97 271 -168 66
-61 145 -158 136 -167 -7 -6 -138 -34 -164 -34 -19 0 -19 -3 13 -67 48 -97 62
-204 41 -309 -9 -44 -19 -88 -24 -98 -7 -18 -3 -19 67 -13 41 4 89 9 108 13
33 7 34 7 27 -22 -14 -54 -74 -169 -126 -237 -86 -113 -227 -214 -355 -252
l-40 -13 0 207 c0 136 -5 227 -14 267 l-13 61 -77 22 c-85 25 -231 92 -322
147 l-60 36 -52 -33 c-28 -18 -53 -33 -54 -34 -1 -1 14 -38 33 -84 53 -122 77
-252 71 -381 -3 -58 -9 -115 -14 -128 -9 -23 -9 -23 -68 19 -143 98 -247 237
-300 397 -16 50 -19 53 -43 47 -136 -34 -384 -40 -511 -12 -41 9 -77 15 -79
12 -3 -2 -19 -40 -37 -83 -36 -90 -101 -194 -166 -266 -52 -59 -159 -140 -170
-129 -14 15 -29 126 -29 212 0 101 27 222 70 317 16 37 30 70 30 74 0 3 -33
29 -72 56 -96 64 -252 222 -308 312 -32 50 -49 69 -60 65 -209 -83 -289 -102
-422 -103 -42 0 -100 5 -128 11 l-50 11 22 41 c13 23 64 83 113 132 93 94 164
139 290 186 33 12 61 23 62 24 2 1 -5 35 -14 76 -23 102 -23 356 0 458 9 40
14 77 12 81 -2 4 -30 17 -62 28 -93 34 -184 87 -258 149 -74 63 -167 171 -162
188 7 21 112 36 232 32 123 -5 235 -31 327 -78 21 -11 41 -19 46 -19 5 0 31
33 58 72 63 93 198 230 292 296 41 28 78 52 83 54 5 2 -6 40 -26 86 -57 136
-69 192 -69 342 -1 74 3 148 7 163 l8 28 42 -23 c23 -13 76 -57 118 -98z
m2603 -1187 c72 -144 96 -349 58 -501 -22 -84 -69 -202 -82 -202 -3 0 -30 29
-58 64 -71 88 -179 187 -262 243 -39 25 -70 49 -70 52 1 3 32 28 70 55 82 58
242 220 285 288 17 27 31 48 32 48 2 0 13 -21 27 -47z m-4061 -52 c66 -80 154
-159 253 -227 39 -27 71 -53 73 -57 1 -5 -29 -30 -66 -57 -81 -57 -236 -214
-287 -289 l-36 -53 -30 63 c-45 97 -62 173 -67 299 -4 86 -1 133 11 185 17 69
73 205 85 205 4 0 32 -31 64 -69z m803 -1541 c-19 -101 -20 -309 -2 -403 l13
-69 -30 6 c-50 10 -166 72 -241 128 -114 86 -222 237 -254 358 l-9 35 201 1
c144 0 219 4 266 15 36 9 66 15 68 13 2 -1 -4 -39 -12 -84z m1237 -480 c56
-80 202 -224 280 -279 l59 -40 -51 -25 c-99 -51 -194 -71 -336 -71 -140 0
-222 18 -328 72 l-48 24 42 31 c74 53 232 220 279 295 25 39 48 68 51 64 3 -3
27 -35 52 -71z"/>
<path d="M3350 4164 c-36 -7 -108 -34 -160 -60 -225 -112 -370 -347 -370 -604
0 -257 145 -492 370 -604 208 -102 412 -102 620 0 225 111 370 348 370 604 0
257 -145 492 -370 604 -52 25 -126 53 -165 61 -87 18 -209 18 -295 -1z"/>
</g>
</svg>
