<?xml version="1.0" encoding="UTF-8"?><svg xmlns="http://www.w3.org/2000/svg" xmlns:xlink="http://www.w3.org/1999/xlink" viewBox="0 0 1024 1024"><defs><radialGradient id="radial-gradient" cx="661.93" cy="664.64" fx="661.93" fy="646.87" r="124.96" gradientUnits="userSpaceOnUse"><stop offset=".45" stop-color="#f7f9fb"/><stop offset=".49" stop-color="#c4c7cd"/><stop offset=".53" stop-color="#989ba5"/><stop offset=".58" stop-color="#727683"/><stop offset=".63" stop-color="#535867"/><stop offset=".67" stop-color="#3c4052"/><stop offset=".72" stop-color="#2b3042"/><stop offset=".78" stop-color="#212639"/><stop offset=".85" stop-color="#1e2337"/></radialGradient></defs><g id="Layer_1"><circle cx="512" cy="512" r="512" style="fill:#0098ea; stroke-width:0px;"/></g><g id="Layer_2"><path d="M709.48,336.61c-47.08,5.67-91.72,28.48-141.31,72.21-12.08,10.61-20.37,18.48-40.07,38.06-14.03,13.97-16.1,15.73-17.14,15.19-.67-.37-6.1-5.67-12.14-11.83-69.77-71.42-115.02-101.48-167.41-111.12-34.15-6.28-69.59-2.32-101.79,11.34-53.97,22.93-93.49,71.17-104.53,127.65-2.5,12.62-3.11,19.39-3.11,34.46,0,23.91,3.29,43.85,10.73,64.95,20.61,58.79,69.83,99.23,131.98,108.5,38.67,5.79,81.54-1.59,119.35-20.43,14.82-7.38,27.32-15.25,42.87-26.9,19.58-14.58,33.91-27.44,64.71-57.94,10.73-10.67,19.94-19.39,20.37-19.39.49,0,4.7,4.03,9.39,8.9,10.49,10.92,36.1,35.62,46.96,45.31,50.01,44.58,87.94,64.34,135.76,70.93,3.54.49,11.83.73,21.35.73,12.99,0,17.02-.24,24.39-1.4,39.64-6.1,73.49-23.11,101.18-50.74,27.87-27.87,45.25-63.73,50.19-103.62,1.16-9.45.98-34.34-.37-43.91-4.76-34.21-16.77-65.07-34.64-88.86-5.79-7.81-17.93-20.25-25.92-26.53-22.2-17.69-51.05-29.64-84.04-34.76-10.49-1.59-36.23-2.07-46.78-.79ZM323.37,409.73c20.49,4.33,41.23,14.21,61.6,29.33,7.26,5.37,18.11,14.27,25.19,20.67,8.9,8.11,53.67,51.84,53.67,52.45,0,.98-39.03,39.58-48.48,48.06-30.01,26.71-57.75,43.61-83.86,51.17-12.32,3.54-19.58,4.51-34.46,4.51-11.59,0-14.33-.18-20.37-1.4-35.98-7.26-62.33-30.74-73.79-65.68-9.76-29.82-7.93-58.12,5.49-84.47,15.37-30.25,43.06-50.25,77.21-55.8,3.84-.61,8.9-.79,17.87-.61,10.49.18,13.72.49,19.94,1.77ZM741.93,408.57c19.94,2.81,36.9,10.43,51.29,23.05,26.77,23.42,39.58,64.83,31.53,102.28-8.17,38.12-37.51,68.98-74.95,78.98-9.03,2.38-17.02,3.35-27.69,3.35-18.91,0-34.09-3.78-53.06-13.11-19.94-9.76-39.15-23.85-63.24-46.41-15.12-14.15-45.31-43.85-45.5-44.76-.18-.98,28.42-30.19,40.74-41.53,41.59-38.42,74.47-56.9,109.78-61.84,7.93-1.1,23.3-1.1,31.1,0Z" style="fill:#1e2337; stroke-width:0px;"/></g><g id="Layer_3"><path d="M687.29,709.4c-5.67-47.08-28.48-91.72-72.21-141.31-10.61-12.08-18.48-20.37-38.06-40.07-13.97-14.03-15.73-16.1-15.19-17.14.37-.67,5.67-6.1,11.83-12.14,71.42-69.77,101.48-115.02,111.12-167.41,6.28-34.15,2.32-69.59-11.34-101.79-22.93-53.97-71.17-93.49-127.65-104.53-12.62-2.5-19.39-3.11-34.46-3.11-23.91,0-43.85,3.29-64.95,10.73-58.79,20.61-99.23,69.83-108.5,131.98-5.79,38.67,1.59,81.54,20.43,119.35,7.38,14.82,15.25,27.32,26.9,42.87,14.58,19.58,27.44,33.91,57.94,64.71,10.67,10.73,19.39,19.94,19.39,20.37,0,.49-4.03,4.7-8.9,9.39-10.92,10.49-35.62,36.1-45.31,46.96-44.58,50.01-64.34,87.94-70.93,135.76-.49,3.54-.73,11.83-.73,21.35,0,12.99.24,17.02,1.4,24.39,6.1,39.64,23.11,73.49,50.74,101.18,27.87,27.87,63.73,45.25,103.62,50.19,9.45,1.16,34.34.98,43.91-.37,34.21-4.76,65.07-16.77,88.86-34.64,7.81-5.79,20.25-17.93,26.53-25.92,17.69-22.2,29.64-51.05,34.76-84.04,1.59-10.49,2.07-36.23.79-46.78ZM614.17,323.29c-4.33,20.49-14.21,41.23-29.33,61.6-5.37,7.26-14.27,18.11-20.67,25.19-8.11,8.9-51.84,53.67-52.45,53.67-.98,0-39.58-39.03-48.06-48.48-26.71-30.01-43.61-57.75-51.17-83.86-3.54-12.32-4.51-19.58-4.51-34.46,0-11.59.18-14.33,1.4-20.37,7.26-35.98,30.74-62.33,65.68-73.79,29.82-9.76,58.12-7.93,84.47,5.49,30.25,15.37,50.25,43.06,55.8,77.21.61,3.84.79,8.9.61,17.87-.18,10.49-.49,13.72-1.77,19.94ZM615.33,741.84c-2.81,19.94-10.43,36.9-23.05,51.29-23.42,26.77-64.83,39.58-102.28,31.53-38.12-8.17-68.98-37.51-78.98-74.95-2.38-9.03-3.35-17.02-3.35-27.69,0-18.91,3.78-34.09,13.11-53.06,9.76-19.94,23.85-39.15,46.41-63.24,14.15-15.12,43.85-45.31,44.76-45.5.98-.18,30.19,28.42,41.53,40.74,38.42,41.59,56.9,74.47,61.84,109.78,1.1,7.93,1.1,23.3,0,31.1Z" style="fill:#1e2337; stroke-width:0px;"/></g><g id="Layer_4"><path d="M775.59,527.6c-37.3-29.28-85-44.72-150.98-48.86-16.04-1.03-27.47-1.34-55.24-1.42-19.79-.04-22.51-.26-22.86-1.38-.22-.73-.3-8.32-.22-16.95,1.16-99.83-9.57-153.09-39.8-196.95-19.71-28.59-47.57-50.84-80-63.95-54.38-21.95-116.44-15.78-164.17,16.34-10.69,7.16-15.91,11.51-26.56,22.17-16.9,16.9-28.68,33.34-38.34,53.52-27,56.15-20.79,119.54,16.6,170.04,23.24,31.44,58.78,56.54,98.84,69.95,15.7,5.26,30.1,8.54,49.33,11.3,24.15,3.54,43.38,4.57,86.72,4.79,15.14.04,27.82.39,28.12.69.34.34.47,6.17.34,12.94-.3,15.14.34,50.71,1.16,65.25,3.84,66.89,16.69,107.68,45.84,146.15,2.16,2.85,7.85,8.88,14.58,15.61,9.19,9.19,12.2,11.86,18.24,16.26,32.34,23.72,68.31,35.62,107.42,35.66,39.42,0,77.06-13.07,108.76-37.78,7.5-5.86,24.97-23.59,30.79-31.31,20.83-27.56,34.15-57.87,38.34-87.33,1.42-9.62,1.64-27,.43-37.09-3.19-28.2-15.14-57.05-34.84-84.01-6.3-8.54-24.15-27.08-32.52-33.64ZM450.87,306.28c11.43,17.55,19.1,39.2,22.81,64.3,1.34,8.93,2.72,22.9,3.19,32.43.56,12.03,1.29,74.61.86,75.04-.69.69-55.59.39-68.27-.3-40.11-2.33-71.67-10-95.48-23.11-11.21-6.21-17.03-10.65-27.56-21.17-8.19-8.19-10-10.26-13.41-15.4-20.31-30.58-22.34-65.81-5.74-98.63,14.19-27.99,35.49-46.7,63.61-55.85,32.26-10.52,65.98-5.09,94.05,15.14,3.15,2.29,6.86,5.74,13.07,12.2,7.29,7.55,9.36,10.05,12.85,15.35ZM747.65,601.43c12.12,16.09,18.72,33.46,19.97,52.57,2.37,35.49-17.85,73.83-50.02,94.62-32.73,21.17-75.3,22.25-108.85,2.85-8.06-4.7-14.4-9.66-21.95-17.21-13.37-13.37-21.43-26.78-28.25-46.79-7.2-21-10.82-44.55-11.9-77.54-.69-20.7-1.03-63.05-.52-63.82.56-.82,41.44-1.25,58.17-.56,56.58,2.24,92.89,12.42,121.35,33.9,6.38,4.83,17.25,15.7,21.99,21.99Z" style="fill:#1e2337; stroke-width:0px;"/></g><g id="Layer_5"><path d="M496.3,775.51c29.28-37.3,44.72-85,48.86-150.98,1.03-16.04,1.34-27.47,1.42-55.24.04-19.79.26-22.51,1.38-22.86.73-.22,8.32-.3,16.95-.22,99.83,1.16,153.09-9.57,196.95-39.8,28.59-19.71,50.84-47.57,63.95-80,21.95-54.38,15.78-116.44-16.34-164.17-7.16-10.69-11.51-15.91-22.17-26.56-16.9-16.9-33.34-28.68-53.52-38.34-56.15-27-119.54-20.79-170.04,16.6-31.44,23.24-56.54,58.78-69.95,98.84-5.26,15.7-8.54,30.1-11.3,49.33-3.54,24.15-4.57,43.38-4.79,86.72-.04,15.14-.39,27.82-.69,28.12-.34.34-6.17.47-12.94.34-15.14-.3-50.71.34-65.25,1.16-66.89,3.84-107.68,16.69-146.15,45.84-2.85,2.16-8.88,7.85-15.61,14.58-9.19,9.19-11.86,12.2-16.26,18.24-23.72,32.34-35.62,68.31-35.66,107.42,0,39.42,13.07,77.06,37.78,108.76,5.86,7.5,23.59,24.97,31.31,30.79,27.56,20.83,57.87,34.15,87.33,38.34,9.62,1.42,27,1.64,37.09.43,28.2-3.19,57.05-15.14,84.01-34.84,8.54-6.3,27.08-24.15,33.64-32.52ZM717.62,450.78c-17.55,11.43-39.2,19.1-64.3,22.81-8.93,1.34-22.9,2.72-32.43,3.19-12.03.56-74.61,1.29-75.04.86-.69-.69-.39-55.59.3-68.27,2.33-40.11,10-71.67,23.11-95.48,6.21-11.21,10.65-17.03,21.17-27.56,8.19-8.19,10.26-10,15.4-13.41,30.58-20.31,65.81-22.34,98.63-5.74,27.99,14.19,46.7,35.49,55.85,63.61,10.52,32.26,5.09,65.98-15.14,94.05-2.29,3.15-5.74,6.86-12.2,13.07-7.55,7.29-10.05,9.36-15.35,12.85ZM422.47,747.56c-16.09,12.12-33.46,18.72-52.57,19.97-35.49,2.37-73.83-17.85-94.62-50.02-21.17-32.73-22.25-75.3-2.85-108.85,4.7-8.06,9.66-14.4,17.21-21.95,13.37-13.37,26.78-21.43,46.79-28.25,21-7.2,44.55-10.82,77.54-11.9,20.7-.69,63.05-1.03,63.82-.52.82.56,1.25,41.44.56,58.17-2.24,56.58-12.42,92.89-33.9,121.35-4.83,6.38-15.7,17.25-21.99,21.99Z" style="fill:#1e2337; stroke-width:0px;"/></g><g id="Layer_9"><path d="M588,630l43-53s58,56,123,34c50.1-16.96,97.04,24.17,97.04,24.17,0,0-51.04,57.83-134.67,52.15-76.37-1.32-128.37-57.32-128.37-57.32Z" style="fill:url(#radial-gradient); stroke-width:0px;"/></g><g id="Layer_7"><circle cx="512" cy="512" r="175" style="fill:#f7f9fb; stroke-width:0px;"/><circle cx="512" cy="512" r="100" style="fill:#1e2337; stroke-width:0px;"/></g></svg>